<svg width="24" height="24" viewBox="0 0 24 24" fill="none" xmlns="http://www.w3.org/2000/svg">
<path d="M5.24359 6.48518L5.24367 6.48511C5.99378 5.73523 7.01101 5.31396 8.07167 5.31396C9.13232 5.31396 10.1496 5.73523 10.8997 6.48511L10.9008 6.48629C11.0932 6.67799 11.3366 6.91229 11.6289 7.1877L12.3155 7.83464L13.0013 7.18691C13.2926 6.9118 13.5351 6.67792 13.7271 6.48666C14.4741 5.7432 15.4843 5.32457 16.5382 5.32175C17.5921 5.31893 18.6045 5.73214 19.3554 6.47159C20.1064 7.21104 20.5351 8.21698 20.5486 9.27078C20.5619 10.3218 20.1611 11.3357 19.4329 12.0934L12.3137 19.2127L5.1935 12.0935C4.46555 11.34 4.06222 10.3308 4.07044 9.28297C4.07866 8.23316 4.50033 7.22807 5.24359 6.48518Z"  stroke-width="2"/>
</svg>
