<svg width="99" height="62" viewBox="0 0 99 62" fill="none" xmlns="http://www.w3.org/2000/svg">
<path d="M86.0603 29.6H83.4604C81.5537 29.6 80.1404 29.26 79.2204 28.58C78.3137 27.8867 77.8604 26.86 77.8604 25.5V19.6H80.6603V25.5C80.6603 26.46 80.9003 27.1533 81.3803 27.58C81.8603 27.9933 82.5537 28.2 83.4604 28.2H86.0603V19.6H88.8604V29.8C88.8604 30.4267 88.7404 30.9933 88.5004 31.5C88.2604 32.02 87.9003 32.4667 87.4203 32.84C86.9537 33.2133 86.3604 33.5 85.6404 33.7C84.9337 33.9 84.107 34 83.1603 34C82.8403 34 82.4937 33.9733 82.1204 33.92C81.7604 33.88 81.3937 33.8067 81.0203 33.7C80.647 33.6067 80.2803 33.48 79.9203 33.32C79.5737 33.1733 79.2537 33 78.9604 32.8L79.7604 31.6C80.2137 31.9067 80.7203 32.1467 81.2803 32.32C81.8403 32.5067 82.4004 32.6 82.9604 32.6C83.9604 32.6 84.727 32.3733 85.2604 31.92C85.7937 31.4667 86.0603 30.76 86.0603 29.8V29.6Z" fill="#16161F"/>
<path d="M66.7481 20.4V28H69.3797C69.8569 28 70.292 27.9333 70.685 27.8C71.092 27.6533 71.4359 27.4267 71.7166 27.12C72.0113 26.8133 72.2359 26.42 72.3902 25.94C72.5587 25.46 72.6429 24.88 72.6429 24.2C72.6429 23.52 72.5587 22.94 72.3902 22.46C72.2359 21.98 72.0113 21.5867 71.7166 21.28C71.4359 20.9733 71.092 20.7533 70.685 20.62C70.292 20.4733 69.8569 20.4 69.3797 20.4H66.7481ZM69.3797 19C70.3481 19 71.2253 19.12 72.0113 19.36C72.8113 19.6 73.492 19.9467 74.0534 20.4C74.6148 20.8533 75.0429 21.4 75.3376 22.04C75.6464 22.68 75.8008 23.4 75.8008 24.2C75.8008 25 75.6464 25.72 75.3376 26.36C75.0429 27 74.6148 27.5467 74.0534 28C73.492 28.4533 72.8113 28.8 72.0113 29.04C71.2253 29.28 70.3481 29.4 69.3797 29.4H66.8008L66.8008 32H63.8008V19H69.3797Z" fill="#16161F"/>
<path d="M53.5781 26.7C53.5781 27.9667 54.3448 28.6 55.8781 28.6H58.6781V24.8H55.8781C54.3448 24.8 53.5781 25.4333 53.5781 26.7ZM58.6781 23.4C58.6781 22.44 58.4248 21.7333 57.9181 21.28C57.4248 20.8267 56.7781 20.6 55.9781 20.6C55.3781 20.6 54.7915 20.6933 54.2181 20.88C53.6448 21.0533 53.1315 21.2933 52.6781 21.6L51.9781 20.4C52.2715 20.2 52.5915 20.0267 52.9381 19.88C53.2981 19.7333 53.6648 19.6133 54.0381 19.52C54.4115 19.4133 54.7781 19.3333 55.1381 19.28C55.5115 19.2267 55.8581 19.2 56.1781 19.2C57.0315 19.2 57.7848 19.3 58.4381 19.5C59.0915 19.7 59.6448 19.9867 60.0981 20.36C60.5515 20.7333 60.8915 21.18 61.1181 21.7C61.3581 22.2067 61.4781 22.7733 61.4781 23.4V30H55.8781C54.0648 30 52.7248 29.7267 51.8581 29.18C51.0048 28.6333 50.5781 27.8067 50.5781 26.7C50.5781 25.5933 51.0048 24.7667 51.8581 24.22C52.7248 23.6733 54.0648 23.4 55.8781 23.4H58.6781Z" fill="#16161F"/>
<path d="M50.291 21H47.891C46.9844 21 46.291 21.2467 45.811 21.74C45.331 22.22 45.091 22.94 45.091 23.9V30H42.291V23.9C42.291 22.54 42.7177 21.4867 43.571 20.74C44.4377 19.98 45.6777 19.6 47.291 19.6H50.291V21Z" fill="#16161F"/>
<path d="M34.9932 29C35.6465 29 36.2532 28.8867 36.8132 28.66C37.3865 28.4333 37.9465 28.1133 38.4932 27.7L39.2932 28.9C39.0398 29.1267 38.7398 29.3333 38.3932 29.52C38.0598 29.7067 37.6932 29.8667 37.2932 30C36.9065 30.12 36.4998 30.2133 36.0732 30.28C35.6465 30.36 35.2198 30.4 34.7932 30.4C33.8465 30.4 32.9798 30.2733 32.1932 30.02C31.4198 29.78 30.7598 29.4267 30.2132 28.96C29.6665 28.48 29.2398 27.8933 28.9332 27.2C28.6398 26.5067 28.4932 25.7067 28.4932 24.8C28.4932 23.9067 28.6332 23.1133 28.9132 22.42C29.2065 21.7133 29.6065 21.1267 30.1132 20.66C30.6332 20.18 31.2465 19.82 31.9532 19.58C32.6598 19.3267 33.4398 19.2 34.2932 19.2C35.0932 19.2 35.8465 19.32 36.5532 19.56C37.2598 19.8 37.8732 20.1533 38.3932 20.62C38.9132 21.0733 39.3265 21.6267 39.6332 22.28C39.9398 22.9333 40.0932 23.6733 40.0932 24.5V25.9H31.5532C31.7132 27.0067 32.0932 27.8 32.6932 28.28C33.3065 28.76 34.0732 29 34.9932 29ZM34.2932 20.5C33.9065 20.5 33.5465 20.5733 33.2132 20.72C32.8798 20.8667 32.5865 21.1 32.3332 21.42C32.0932 21.74 31.8932 22.1533 31.7332 22.66C31.5865 23.1667 31.5065 23.78 31.4932 24.5H37.0932C37.0932 23.8067 37.0132 23.2067 36.8532 22.7C36.6932 22.1933 36.4798 21.78 36.2132 21.46C35.9598 21.1267 35.6598 20.8867 35.3132 20.74C34.9798 20.58 34.6398 20.5 34.2932 20.5Z" fill="#16161F"/>
<path d="M26.3018 30H23.5018V23.7C23.5018 22.74 23.2618 22.0533 22.7818 21.64C22.3018 21.2133 21.6084 21 20.7018 21H18.1018V30H15.3018V16H18.1018V19.6H20.7018C22.6084 19.6 24.0151 19.9467 24.9218 20.64C25.8418 21.32 26.3018 22.34 26.3018 23.7V30Z" fill="#16161F"/>
<path d="M13.7 17.5H8.3V30H5.4V17.5H0V16H13.7V17.5Z" fill="#16161F"/>
<path d="M90.8844 37H88.9844V35.6H90.8844V32.4H93.6844V35.6H96.7844V37H93.6844V42.2C93.6844 42.7067 93.7377 43.14 93.8444 43.5C93.9644 43.8467 94.1177 44.1333 94.3044 44.36C94.5044 44.5733 94.731 44.7333 94.9844 44.84C95.2377 44.9467 95.5044 45 95.7844 45C96.1844 45 96.571 44.94 96.9444 44.82C97.3177 44.6867 97.631 44.5467 97.8844 44.4L98.4844 45.7C98.0844 45.9 97.6244 46.0667 97.1044 46.2C96.5977 46.3333 96.091 46.4 95.5844 46.4C94.0777 46.4 92.9177 46.0267 92.1044 45.28C91.291 44.5333 90.8844 43.5067 90.8844 42.2V37Z" fill="#16161F"/>
<path d="M82.9766 45C83.6299 45 84.2366 44.8867 84.7966 44.66C85.3699 44.4333 85.9299 44.1133 86.4766 43.7L87.2766 44.9C87.0232 45.1267 86.7232 45.3333 86.3766 45.52C86.0432 45.7067 85.6766 45.8667 85.2766 46C84.8899 46.12 84.4832 46.2133 84.0566 46.28C83.6299 46.36 83.2032 46.4 82.7766 46.4C81.8299 46.4 80.9632 46.2733 80.1766 46.02C79.4032 45.78 78.7432 45.4267 78.1966 44.96C77.6499 44.48 77.2232 43.8933 76.9166 43.2C76.6232 42.5067 76.4766 41.7067 76.4766 40.8C76.4766 39.9067 76.6166 39.1133 76.8966 38.42C77.1899 37.7133 77.5899 37.1267 78.0966 36.66C78.6166 36.18 79.2299 35.82 79.9366 35.58C80.6432 35.3267 81.4232 35.2 82.2766 35.2C83.0766 35.2 83.8299 35.32 84.5366 35.56C85.2432 35.8 85.8566 36.1533 86.3766 36.62C86.8966 37.0733 87.3099 37.6267 87.6166 38.28C87.9232 38.9333 88.0766 39.6733 88.0766 40.5V41.9H79.5366C79.6966 43.0067 80.0766 43.8 80.6766 44.28C81.2899 44.76 82.0566 45 82.9766 45ZM82.2766 36.5C81.8899 36.5 81.5299 36.5733 81.1966 36.72C80.8632 36.8667 80.5699 37.1 80.3166 37.42C80.0766 37.74 79.8766 38.1533 79.7166 38.66C79.5699 39.1667 79.4899 39.78 79.4766 40.5H85.0766C85.0766 39.8067 84.9966 39.2067 84.8366 38.7C84.6766 38.1933 84.4632 37.78 84.1966 37.46C83.9432 37.1267 83.6432 36.8867 83.2966 36.74C82.9632 36.58 82.6232 36.5 82.2766 36.5Z" fill="#16161F"/>
<path d="M69.0508 41.4H66.8008V46H63.8008V32H66.8008V40H69.0508L72.3722 35.6H75.5865L71.8365 40.6L75.8008 46H72.3722L69.0508 41.4Z" fill="#16161F"/>
<path d="M62.9824 37H60.5824C59.6758 37 58.9824 37.2467 58.5024 37.74C58.0224 38.22 57.7824 38.94 57.7824 39.9V46H54.9824V39.9C54.9824 38.54 55.4091 37.4867 56.2624 36.74C57.1291 35.98 58.3691 35.6 59.9824 35.6H62.9824V37Z" fill="#16161F"/>
<path d="M44.4912 42.7C44.4912 43.9667 45.2579 44.6 46.7912 44.6H49.5912V40.8H46.7912C45.2579 40.8 44.4912 41.4333 44.4912 42.7ZM49.5912 39.4C49.5912 38.44 49.3379 37.7333 48.8312 37.28C48.3379 36.8267 47.6912 36.6 46.8912 36.6C46.2912 36.6 45.7045 36.6933 45.1312 36.88C44.5579 37.0533 44.0445 37.2933 43.5912 37.6L42.8912 36.4C43.1845 36.2 43.5045 36.0267 43.8512 35.88C44.2112 35.7333 44.5779 35.6133 44.9512 35.52C45.3245 35.4133 45.6912 35.3333 46.0512 35.28C46.4245 35.2267 46.7712 35.2 47.0912 35.2C47.9445 35.2 48.6979 35.3 49.3512 35.5C50.0045 35.7 50.5579 35.9867 51.0112 36.36C51.4645 36.7333 51.8045 37.18 52.0312 37.7C52.2712 38.2067 52.3912 38.7733 52.3912 39.4V46H46.7912C44.9779 46 43.6379 45.7267 42.7712 45.18C41.9179 44.6333 41.4912 43.8067 41.4912 42.7C41.4912 41.5933 41.9179 40.7667 42.7712 40.22C43.6379 39.6733 44.9779 39.4 46.7912 39.4H49.5912Z" fill="#16161F"/>
<path d="M29.6992 44H29.8992L35.0992 32H39.3992V46H36.4992V34.8H36.2992L31.4992 46H28.0992L23.2992 34.8H23.0992V46H20.1992V32H24.4992L29.6992 44Z" fill="#16161F"/>
</svg>
